<?xml version="1.0" standalone="no"?>
<!DOCTYPE svg PUBLIC "-//W3C//DTD SVG 20010904//EN"
 "http://www.w3.org/TR/2001/REC-SVG-20010904/DTD/svg10.dtd">
<svg version="1.0" xmlns="http://www.w3.org/2000/svg"
 width="500.000000pt" height="500.000000pt" viewBox="0 0 500.000000 500.000000"
 preserveAspectRatio="xMidYMid meet">

<g transform="translate(0.000000,500.000000) scale(0.100000,-0.100000)"
fill="#000000" stroke="none">
<path d="M2552 4198 c-17 -196 -16 -205 11 -222 12 -8 59 -18 105 -22 77 -6
82 -5 82 13 0 18 -9 21 -71 27 -39 3 -76 9 -82 13 -9 6 -5 133 10 276 6 56 5
57 -19 57 -24 0 -24 -1 -36 -142z"/>
<path d="M2075 4295 c-5 -1 -38 -11 -72 -20 -35 -10 -63 -23 -63 -29 1 -31 87
-350 95 -353 6 -1 16 1 24 6 12 8 11 19 -3 77 -11 42 -13 71 -7 77 5 5 33 10
61 11 l53 1 37 -60 c27 -44 42 -59 56 -57 10 2 21 5 23 7 7 7 -61 115 -84 133
-23 18 -23 19 -4 35 35 31 16 142 -29 166 -19 10 -64 13 -87 6z m65 -55 c23
-23 28 -91 8 -108 -18 -14 -117 -42 -122 -34 -8 13 -35 126 -31 130 4 5 96 30
113 31 6 1 21 -8 32 -19z"/>
<path d="M1814 4206 c-3 -8 6 -90 21 -181 15 -92 24 -169 22 -171 -3 -3 -58
53 -122 123 -65 70 -121 129 -124 131 -4 1 -14 -3 -24 -10 -15 -12 -2 -28 116
-152 l133 -140 32 13 c23 10 32 20 32 37 0 21 -32 253 -45 332 -6 33 -31 44
-41 18z"/>
<path d="M3107 4048 c-85 -181 -85 -171 -2 -219 71 -41 114 -39 154 6 99 113
73 231 -49 229 l-48 0 33 67 c29 56 32 68 19 73 -9 3 -19 6 -23 6 -4 0 -42
-73 -84 -162z m144 -28 c26 -14 25 -62 -2 -118 -30 -61 -58 -72 -114 -44 -25
12 -45 26 -45 32 0 6 13 40 29 75 30 65 30 65 71 65 23 0 50 -5 61 -10z"/>
<path d="M2838 4184 c-16 -16 -6 -23 50 -34 68 -14 102 -34 102 -60 0 -29 -13
-31 -89 -13 l-72 17 -24 -25 c-13 -13 -27 -41 -30 -61 -6 -31 -3 -41 19 -62
20 -20 35 -26 71 -26 26 0 55 5 66 10 16 9 19 7 19 -15 0 -17 5 -25 18 -25 14
0 23 22 46 109 32 123 29 143 -29 167 -41 17 -137 29 -147 18z m77 -147 c28
-7 50 -19 49 -25 -1 -7 -2 -18 -2 -26 -3 -20 -66 -39 -102 -31 -34 7 -45 31
-31 69 12 30 17 30 86 13z"/>
<path d="M1501 4046 c-10 -11 -6 -58 19 -218 39 -260 38 -255 55 -237 12 12 9
47 -21 238 -19 124 -36 226 -38 228 -2 2 -9 -3 -15 -11z"/>
<path d="M1148 3751 c-37 -39 -68 -73 -67 -78 0 -4 61 -64 135 -132 128 -118
136 -123 152 -107 16 17 14 20 -35 65 -29 26 -53 52 -53 57 0 17 65 74 83 74
10 0 44 -13 76 -30 57 -28 59 -29 76 -10 16 18 15 20 -44 49 -33 17 -72 31
-87 31 -23 0 -25 3 -20 25 14 53 -53 125 -115 125 -28 0 -44 -11 -101 -69z
m140 3 c50 -35 44 -80 -17 -138 l-30 -29 -43 38 c-24 21 -47 42 -53 46 -13 13
74 99 100 99 11 0 31 -7 43 -16z"/>
<path d="M3546 3715 c-19 -29 -10 -57 25 -76 17 -9 25 -7 45 12 29 27 31 50 6
72 -27 24 -57 21 -76 -8z"/>
<path d="M3871 3432 c-85 -49 -156 -93 -158 -98 -6 -17 92 -168 118 -183 16
-9 36 -12 54 -7 39 10 99 71 92 95 -4 17 0 18 34 14 28 -4 47 0 73 17 42 25
52 55 37 102 -13 38 -79 148 -89 148 -4 0 -76 -40 -161 -88z m184 -15 c32 -56
32 -90 -1 -111 -39 -26 -65 -17 -101 38 -18 26 -33 51 -33 55 0 8 82 59 97 60
7 1 24 -19 38 -42z m-140 -82 c35 -61 31 -102 -12 -128 -20 -11 -41 -16 -53
-12 -18 6 -80 97 -80 117 0 8 99 68 112 68 3 0 18 -20 33 -45z"/>
<path d="M939 3468 c-12 -16 -19 -34 -16 -41 7 -16 229 -282 241 -287 5 -3 14
2 19 12 9 13 3 26 -28 63 l-38 47 23 43 c49 90 50 90 116 76 53 -12 59 -12 71
5 17 22 12 24 -220 77 l-147 34 -21 -29z m124 -39 c45 -11 83 -22 85 -24 3 -3
-58 -105 -63 -105 -7 0 -115 132 -115 141 0 12 0 12 93 -12z"/>
<path d="M4026 3135 c-87 -35 -163 -68 -168 -73 -4 -4 -2 -15 4 -24 12 -15 28
-11 163 43 216 86 197 76 185 99 -6 11 -14 20 -18 19 -4 -1 -79 -30 -166 -64z"/>
<path d="M4224 3038 c3 -24 8 -52 11 -63 6 -19 -6 -24 -154 -60 -131 -32 -161
-42 -161 -56 0 -10 4 -20 9 -24 6 -3 80 12 166 34 85 21 157 36 159 32 2 -3 9
-30 16 -58 11 -50 30 -67 45 -42 4 5 -8 71 -26 145 -28 114 -36 134 -52 134
-17 0 -19 -5 -13 -42z"/>
<path d="M832 2948 c3 -23 11 -26 121 -48 59 -12 70 -21 81 -76 5 -22 2 -37
-11 -53 l-18 -22 -94 21 c-98 22 -121 21 -121 -4 0 -17 8 -20 108 -41 103 -21
138 -20 156 7 18 25 21 84 6 122 -8 23 -7 26 10 26 13 0 20 7 20 20 0 11 -2
20 -5 20 -3 0 -57 11 -121 25 -140 30 -136 30 -132 3z"/>
<path d="M4200 2713 c-37 -14 -58 -47 -70 -109 -7 -36 -19 -72 -27 -80 -19
-19 -83 -15 -94 6 -4 8 -11 50 -14 93 -5 54 -11 77 -20 77 -18 0 -28 -67 -19
-136 11 -95 68 -128 158 -90 35 15 48 40 62 121 3 22 13 48 22 58 18 20 75 23
90 4 6 -7 12 -46 14 -87 2 -59 6 -75 19 -78 39 -7 30 177 -11 210 -21 17 -77
23 -110 11z"/>
<path d="M845 2659 c-22 -5 -48 -19 -57 -30 -24 -28 -23 -86 2 -127 25 -40 25
-42 0 -42 -13 0 -20 -7 -20 -20 0 -19 7 -20 190 -20 183 0 190 1 190 20 0 18
-7 20 -64 20 l-65 0 16 46 c20 58 9 109 -27 135 -31 22 -112 31 -165 18z m147
-67 c19 -19 20 -26 12 -69 l-9 -48 -76 -3 -76 -3 -17 36 c-37 77 -3 119 92
112 37 -3 60 -10 74 -25z"/>
<path d="M912 2351 c-51 -10 -100 -24 -109 -33 -31 -32 -6 -189 31 -196 16 -3
18 1 12 25 -19 88 -19 126 -1 139 34 25 43 16 55 -53 14 -82 30 -103 80 -103
88 0 118 78 61 158 -28 37 -28 40 -10 45 13 3 17 11 13 21 -7 19 -13 19 -132
-3z m97 -75 c29 -47 28 -84 -3 -92 -48 -12 -60 -2 -72 58 -6 32 -9 60 -6 63 3
3 18 5 33 5 20 0 33 -9 48 -34z"/>
<path d="M3932 2178 c2 -17 17 -26 69 -42 l66 -21 -18 -50 c-37 -105 -16 -152
79 -175 92 -22 118 2 158 143 9 33 12 62 8 66 -11 9 -333 102 -352 101 -8 0
-12 -9 -10 -22z m291 -105 c15 -3 27 -9 27 -12 0 -15 -33 -106 -43 -118 -13
-17 -50 -16 -92 1 -39 17 -44 41 -24 121 l11 43 46 -14 c26 -8 59 -17 75 -21z"/>
<path d="M975 2073 c-49 -19 -98 -42 -107 -50 -34 -31 -13 -99 44 -146 16 -13
19 -20 11 -24 -17 -6 -17 -43 0 -43 8 0 63 18 123 39 71 25 110 44 112 55 6
28 -21 27 -105 -3 l-81 -30 -26 20 c-37 29 -60 77 -46 93 5 8 50 28 98 46 100
37 105 41 96 63 -8 22 -13 21 -119 -20z"/>
<path d="M3839 1911 c-1 -6 -2 -16 -3 -22 -1 -5 73 -43 164 -84 148 -66 166
-72 178 -57 6 9 12 18 12 21 0 6 -302 141 -332 149 -10 2 -19 -1 -19 -7z"/>
<path d="M1157 1854 c-3 -4 1 -20 9 -37 19 -36 15 -41 -76 -92 -61 -35 -65
-36 -77 -18 -31 47 -38 53 -52 44 -12 -8 -11 -15 7 -45 l21 -35 -35 -21 c-28
-18 -32 -25 -24 -41 10 -18 12 -18 46 -1 34 16 37 16 49 -2 18 -24 37 -11 29
19 -5 21 2 28 69 65 85 46 100 60 100 93 0 45 -45 92 -66 71z"/>
<path d="M3788 1790 c-9 -6 -40 -49 -69 -96 l-52 -87 28 -52 29 -52 -48 -57
c-27 -31 -50 -56 -52 -56 -2 0 -28 11 -58 24 -52 23 -55 23 -71 7 -15 -17 -6
-23 157 -95 95 -42 178 -76 184 -76 11 0 54 42 54 53 0 3 -39 74 -86 157 l-86
150 41 70 c23 39 48 70 56 70 8 0 73 -36 144 -80 71 -44 131 -80 135 -80 3 0
10 9 16 19 8 16 4 22 -23 39 -17 10 -81 49 -141 85 -111 68 -128 74 -158 57z
m10 -406 c24 -42 42 -79 40 -84 -3 -8 -167 61 -168 71 0 8 71 89 78 89 4 0 26
-35 50 -76z"/>
<path d="M1192 1628 c-99 -77 -111 -96 -90 -141 21 -43 86 -117 103 -117 28 0
23 19 -20 69 -46 54 -54 78 -33 99 20 20 31 13 76 -44 54 -68 86 -72 138 -20
19 19 34 40 34 48 0 28 -41 79 -77 95 -49 23 -48 22 -36 34 12 12 7 39 -6 39
-4 0 -44 -28 -89 -62z m108 -39 c57 -35 63 -56 28 -89 -31 -29 -41 -26 -82 27
-34 44 -35 47 -19 65 21 23 30 23 73 -3z"/>
<path d="M1390 1438 c-42 -29 -88 -94 -96 -135 -5 -27 -1 -37 23 -62 17 -16
49 -35 72 -41 33 -9 40 -14 32 -24 -17 -20 15 -45 33 -25 213 238 235 266 218
282 -15 16 -19 13 -60 -31 -32 -35 -45 -43 -49 -32 -3 8 -23 32 -43 53 -45 44
-81 48 -130 15z m115 -55 c19 -20 35 -43 35 -52 0 -9 -21 -38 -48 -64 -45 -45
-49 -46 -83 -37 -50 14 -73 42 -64 77 8 32 85 113 108 113 9 0 32 -16 52 -37z"/>
<path d="M3444 1375 c-4 -9 30 -65 85 -142 49 -70 89 -128 87 -130 -2 -2 -71
35 -154 82 -84 47 -156 85 -162 85 -16 0 -60 -31 -60 -42 0 -16 204 -297 216
-297 6 -1 16 5 22 12 8 9 -13 46 -83 142 -51 72 -92 131 -90 133 2 2 74 -36
160 -84 147 -82 158 -86 182 -73 14 8 28 19 30 26 6 16 -197 303 -214 303 -8
0 -16 -7 -19 -15z"/>
<path d="M1593 1193 c-56 -82 -70 -109 -62 -120 6 -7 15 -13 20 -13 10 0 149
204 149 219 0 7 -23 22 -33 21 -1 0 -35 -48 -74 -107z"/>
<path d="M1724 1238 c-4 -7 2 -18 14 -26 12 -8 22 -21 22 -28 0 -8 -34 -74
-75 -148 -41 -74 -75 -139 -75 -144 0 -16 33 -24 42 -10 41 64 158 289 158
306 0 21 -43 62 -66 62 -7 0 -16 -5 -20 -12z"/>
<path d="M3151 1191 c-12 -8 -5 -31 44 -133 65 -137 104 -208 113 -208 4 0 13
4 20 9 10 6 -6 46 -70 175 -45 91 -85 166 -88 166 -3 0 -12 -4 -19 -9z"/>
<path d="M1863 1138 c-6 -18 -23 -65 -37 -105 -21 -59 -24 -77 -15 -97 13 -29
91 -66 145 -69 57 -3 52 19 -8 37 -85 25 -111 50 -89 85 8 12 20 11 79 -9 66
-23 71 -23 95 -7 30 20 50 78 37 111 -14 37 -113 64 -150 41 -6 -4 -10 5 -10
19 0 39 -34 34 -47 -6z m148 -57 c21 -17 22 -22 11 -45 -16 -37 -31 -40 -87
-18 -57 23 -64 33 -36 61 27 27 81 27 112 2z"/>
<path d="M2104 1073 c4 -9 25 -57 47 -108 l40 -92 -75 -73 c-42 -40 -73 -77
-70 -81 13 -21 45 -4 115 59 47 43 81 67 92 64 18 -4 18 -14 -3 -117 -5 -22
-8 -40 -7 -41 10 -8 47 -13 47 -7 0 5 14 83 30 173 36 195 36 200 11 200 -22
0 -26 -8 -42 -103 -10 -60 -14 -68 -32 -65 -16 2 -32 26 -63 98 -38 84 -56
107 -88 109 -4 1 -5 -6 -2 -16z"/>
<path d="M1472 1018 c-17 -17 -15 -35 5 -42 21 -8 48 17 40 38 -8 19 -28 21
-45 4z"/>
<path d="M2800 965 c-19 -22 -3 -74 25 -81 49 -12 79 29 59 80 -8 20 -67 21
-84 1z"/>
</g>
</svg>
